<svg xmlns="http://www.w3.org/2000/svg">
  <symbol id="icon-code" viewBox="0 0 24 24">
    <path d="m8 9-3 3 3 3M16 9l3 3-3 3M14 5l-4 14"/>
  </symbol>
  <symbol id="icon-logout" viewBox="0 0 24 24">
    <path d="M10 5H5v14h5M14 8l4 4-4 4M18 12H9"/>
  </symbol>
  <symbol id="icon-users" viewBox="0 0 24 24">
    <circle cx="9" cy="8" r="3"/><path d="M3 19c0-3 2.5-5 6-5s6 2 6 5M16 5.5a3 3 0 0 1 0 5.8M17 14c2.5.3 4 2 4 4"/>
  </symbol>
  <symbol id="icon-login" viewBox="0 0 24 24">
    <path d="M14 5h5v14h-5M10 8l4 4-4 4M14 12H4"/>
  </symbol>
  <symbol id="icon-plus" viewBox="0 0 24 24"><path d="M12 5v14M5 12h14"/></symbol>
  <symbol id="icon-hash" viewBox="0 0 24 24"><path d="M9 3 7 21M17 3l-2 18M4 9h16M3 15h16"/></symbol>
  <symbol id="icon-clock" viewBox="0 0 24 24"><circle cx="12" cy="12" r="9"/><path d="M12 7v5l3 2"/></symbol>
  <symbol id="icon-copy" viewBox="0 0 24 24"><rect x="8" y="8" width="11" height="11" rx="2"/><path d="M16 8V5a2 2 0 0 0-2-2H5a2 2 0 0 0-2 2v9a2 2 0 0 0 2 2h3"/></symbol>
  <symbol id="icon-play" viewBox="0 0 24 24"><path d="m8 5 11 7-11 7Z"/></symbol>
  <symbol id="icon-trash" viewBox="0 0 24 24"><path d="M4 7h16M9 7V4h6v3M7 7l1 13h8l1-13M10 11v5M14 11v5"/></symbol>
  <symbol id="icon-trophy" viewBox="0 0 24 24"><path d="M8 4h8v4c0 4-2 6-4 6s-4-2-4-6ZM8 6H4c0 4 2 5 5 5M16 6h4c0 4-2 5-5 5M12 14v4M8 21h8M9 18h6"/></symbol>
  <symbol id="icon-bolt" viewBox="0 0 24 24"><path d="m13 2-8 12h7l-1 8 8-12h-7Z"/></symbol>
  <symbol id="icon-flag" viewBox="0 0 24 24"><path d="M5 21V4M5 5h10l-2 3 2 3H5"/></symbol>
  <symbol id="icon-bot" viewBox="0 0 24 24"><rect x="4" y="7" width="16" height="12" rx="3"/><path d="M12 3v4M8 12h.01M16 12h.01M8 16h8"/></symbol>
  <symbol id="icon-check" viewBox="0 0 24 24"><path d="m5 12 4 4L19 6"/></symbol>
  <symbol id="icon-mirror" viewBox="0 0 24 24"><path d="m9 7-5 5 5 5M15 7l5 5-5 5M4 12h16"/></symbol>
  <symbol id="icon-sparkles" viewBox="0 0 24 24"><path d="m12 3 1.2 3.8L17 8l-3.8 1.2L12 13l-1.2-3.8L7 8l3.8-1.2ZM6 14l.8 2.2L9 17l-2.2.8L6 20l-.8-2.2L3 17l2.2-.8ZM18 13l.7 1.8 1.8.7-1.8.7L18 18l-.7-1.8-1.8-.7 1.8-.7Z"/></symbol>
  <symbol id="icon-timer" viewBox="0 0 24 24"><circle cx="12" cy="13" r="8"/><path d="M9 2h6M12 5v3M12 13l3-2"/></symbol>
  <symbol id="icon-keyboard" viewBox="0 0 24 24"><rect x="3" y="6" width="18" height="12" rx="2"/><path d="M7 10h.01M11 10h.01M15 10h.01M18 10h.01M7 14h2M11 14h6"/></symbol>
  <symbol id="icon-shield" viewBox="0 0 24 24"><path d="M12 3 19 6v5c0 4.7-2.8 8.2-7 10-4.2-1.8-7-5.3-7-10V6l7-3Z"/><path d="m8.5 12 2.2 2.2 4.8-4.8"/></symbol>
  <symbol id="icon-guard" viewBox="0 0 24 24"><path d="M12 3 19 6v5c0 4.7-2.8 8.2-7 10-4.2-1.8-7-5.3-7-10V6l7-3Z"/><path d="M12 8v8M8 12h8"/></symbol>
  <symbol id="icon-steal" viewBox="0 0 24 24"><path d="M4 7h11a4 4 0 1 1 0 8H9"/><path d="m8 11-4 4 4 4"/><path d="M13 10h.01M16 10h.01"/></symbol>
</svg>
